<svg width="44" height="40" viewBox="0 0 44 40" fill="none" xmlns="http://www.w3.org/2000/svg">
<circle cx="20" cy="20" r="15" stroke="#F1F1F1" stroke-width="2"/>
<path d="M36 20C36 19.4477 35.5523 19 35 19C34.4477 19 34 19.4477 34 20H36ZM43 36C43.5523 36 44 35.5523 44 35C44 34.4477 43.5523 34 43 34V36ZM34 20V30H36V20H34ZM40 36H43V34H40V36ZM34 30C34 33.3137 36.6863 36 40 36V34C37.7909 34 36 32.2091 36 30H34Z" fill="#F1F1F1"/>
<circle cx="20" cy="12" r="3.5" stroke="#F1F1F1" stroke-width="2"/>
<circle cx="20" cy="28" r="3.5" stroke="#F1F1F1" stroke-width="2"/>
<circle cx="12" cy="20" r="3.5" stroke="#F1F1F1" stroke-width="2"/>
<circle cx="28" cy="20" r="3.5" stroke="#F1F1F1" stroke-width="2"/>
</svg>
