<svg width="40" height="40" viewBox="0 0 40 40" fill="none" xmlns="http://www.w3.org/2000/svg">
<circle cx="16" cy="20" r="15" stroke="#FE487F" stroke-width="2"/>
<path fill-rule="evenodd" clip-rule="evenodd" d="M31 20C31 28.2843 24.2843 35 16 35C7.71573 35 1 28.2843 1 20C1 11.7157 7.71573 5 16 5C24.2843 5 31 11.7157 31 20ZM19.5 12C19.5 13.933 17.933 15.5 16 15.5C14.067 15.5 12.5 13.933 12.5 12C12.5 10.067 14.067 8.5 16 8.5C17.933 8.5 19.5 10.067 19.5 12ZM16 31.5C17.933 31.5 19.5 29.933 19.5 28C19.5 26.067 17.933 24.5 16 24.5C14.067 24.5 12.5 26.067 12.5 28C12.5 29.933 14.067 31.5 16 31.5ZM11.5 20C11.5 21.933 9.933 23.5 8 23.5C6.067 23.5 4.5 21.933 4.5 20C4.5 18.067 6.067 16.5 8 16.5C9.933 16.5 11.5 18.067 11.5 20ZM24 23.5C25.933 23.5 27.5 21.933 27.5 20C27.5 18.067 25.933 16.5 24 16.5C22.067 16.5 20.5 18.067 20.5 20C20.5 21.933 22.067 23.5 24 23.5Z" fill="#FE487F"/>
<path d="M32 20C32 19.4477 31.5523 19 31 19C30.4477 19 30 19.4477 30 20H32ZM39 36C39.5523 36 40 35.5523 40 35C40 34.4477 39.5523 34 39 34V36ZM30 20V30H32V20H30ZM36 36H39V34H36V36ZM30 30C30 33.3137 32.6863 36 36 36V34C33.7909 34 32 32.2091 32 30H30Z" fill="#FE487F"/>
</svg>
