<svg width="40" height="40" viewBox="0 0 40 40" fill="none" xmlns="http://www.w3.org/2000/svg">
<path d="M4 35.9997H18.5454V21.4542H4V35.9997ZM6.90886 24.3635H15.6362V33.0683H6.90886V24.3635Z" fill="#F1F1F1"/>
<path d="M12.7271 27.2724H9.81812V30.1818H12.7271V27.2724Z" fill="#F1F1F1"/>
<path d="M30.182 33.0909H27.2722V36H30.182V33.0909Z" fill="#F1F1F1"/>
<path d="M36 33.0909H33.0903V36H36V33.0909Z" fill="#F1F1F1"/>
<path d="M33.0906 24.3635H30.1817V21.4542H21.4541V35.9997H24.3634V27.2724H27.2721V30.1818H35.9997V21.4542H33.0906V24.3635Z" fill="#F1F1F1"/>
<path d="M4 18.5457H18.5454V4H4V18.5457ZM6.90886 6.90886H15.6362V15.6362H6.90886V6.90886Z" fill="#F1F1F1"/>
<path d="M12.7271 9.81812H9.81812V12.7274H12.7271V9.81812Z" fill="#F1F1F1"/>
<path d="M21.4541 4V18.5457H35.9999V4H21.4541ZM33.0906 15.6362H24.3634V6.90886H33.0906V15.6362Z" fill="#F1F1F1"/>
<path d="M30.182 9.81812H27.2722V12.7274H30.182V9.81812Z" fill="#F1F1F1"/>
</svg>
